<?xml version="1.0" encoding="UTF-8"?>
<svg version="1.1" xmlns="http://www.w3.org/2000/svg" width="439" height="377">
<path d="M0 0 C144.87 0 289.74 0 439 0 C439 124.41 439 248.82 439 377 C294.13 377 149.26 377 0 377 C0 252.59 0 128.18 0 0 Z " fill="#028BFA" transform="translate(0,0)"/>
<path d="M0 0 C144.87 0 289.74 0 439 0 C439 124.41 439 248.82 439 377 C294.13 377 149.26 377 0 377 C0 252.59 0 128.18 0 0 Z M176.625 30.125 C175.74142822 30.4235791 174.85785645 30.7221582 173.94750977 31.02978516 C160.15468852 35.87567707 148.38182958 42.89116893 137 52 C136.19046875 52.58394531 135.3809375 53.16789062 134.546875 53.76953125 C129.45067813 57.47034088 125.69306691 61.52594042 121.921875 66.5703125 C120 69 120 69 117.5390625 71.40234375 C114.81053406 74.19383823 112.69463024 77.15177655 110.625 80.4375 C110.24214844 81.04005615 109.85929687 81.6426123 109.46484375 82.26342773 C102.0468726 93.96495936 102.0468726 93.96495936 98 107 C97.34 107 96.68 107 96 107 C90.48679132 126.12516452 89.19771839 143.27210104 90 163 C89.01 163 88.02 163 87 163 C87 163.66 87 164.32 87 165 C86.16984375 165.08894531 85.3396875 165.17789063 84.484375 165.26953125 C80.31711664 166.14316053 77.00607231 167.73515064 73.25 169.6875 C72.54190186 170.05198242 71.83380371 170.41646484 71.10424805 170.79199219 C69.0638601 171.85095423 67.03173519 172.92456073 65 174 C64.07316406 174.47566406 63.14632812 174.95132813 62.19140625 175.44140625 C54.51538766 179.66384669 48.02640956 185.69021694 42 192 C42 192.66 42 193.32 42 194 C41.43023437 194.21140625 40.86046875 194.4228125 40.2734375 194.640625 C31.48887129 199.89325222 26.2891628 213.75164812 23 223 C23 223.66 23 224.32 23 225 C22.34 225 21.68 225 21 225 C20.72285156 226.10859375 20.44570313 227.2171875 20.16015625 228.359375 C17 241 17 241 16.45410156 242.93237305 C13.44813129 256.61923449 14.64450253 277.28900506 21 290 C21.66 290 22.32 290 23 290 C23.08894531 290.66515625 23.17789062 291.3303125 23.26953125 292.015625 C24.22035975 295.9002933 25.87614009 299.19946753 27.6875 302.75 C28.04690674 303.45938721 28.40631348 304.16877441 28.77661133 304.8996582 C32.66246183 312.45456692 36.73568374 319.17272906 43 325 C43.98806641 326.03447266 43.98806641 326.03447266 44.99609375 327.08984375 C49.95582822 332.25587567 54.85645307 336.34248807 61 340 C61.83313721 340.51844482 61.83313721 340.51844482 62.68310547 341.04736328 C72.70615488 347.26499759 82.51637935 351.3312107 94 354 C94.74053928 354.17269588 95.48107856 354.34539176 96.24405843 354.52332085 C102.19179061 355.816373 107.79541971 356.2874142 113.8712616 356.26069641 C114.81252295 356.26452196 115.75378431 356.26834751 116.72356874 356.27228898 C119.84986907 356.28253499 122.97598285 356.27864285 126.10229492 356.2746582 C128.35526701 356.27900941 130.60823762 356.28419392 132.86120605 356.29014587 C138.96268288 356.30350522 145.06409764 356.30411779 151.16558623 356.30158257 C156.26954338 356.30051048 161.37348809 356.3054025 166.47744256 356.310188 C179.21452287 356.32190635 191.95155845 356.32106424 204.68863831 356.31463119 C215.71949832 356.30946735 226.75026987 356.32070638 237.7811124 356.33972941 C249.13700693 356.35916112 260.49284757 356.36706371 271.84876329 356.36360615 C278.21235481 356.36179862 284.57586537 356.36437626 290.93944359 356.37832069 C296.92888362 356.39095462 302.91814762 356.38890244 308.90758514 356.37590981 C311.09598413 356.37355631 313.28439571 356.37623426 315.47278023 356.38453293 C337.95884096 356.46360134 357.48687694 352.73743918 377 341 C377.91265625 340.47792969 378.8253125 339.95585937 379.765625 339.41796875 C386.88127032 335.1744205 392.34074829 330.00691905 398 324 C398.82757813 323.22269531 399.65515625 322.44539063 400.5078125 321.64453125 C403.38725936 318.58906804 405.40470881 315.42904889 407.5 311.8125 C408.08092407 310.82382935 408.08092407 310.82382935 408.67358398 309.81518555 C414.65487978 300.46943739 414.65487978 300.46943739 417 290 C417.66 290 418.32 290 419 290 C419.65104151 287.64716625 420.29592122 285.29291551 420.9375 282.9375 C421.11990234 282.28072266 421.30230469 281.62394531 421.49023438 280.94726562 C425.8990219 264.67483166 426.7401512 241.48030241 419 226 C418.34 226 417.68 226 417 226 C416.814375 224.96875 416.62875 223.9375 416.4375 222.875 C413.76694729 212.3421907 407.68972519 201.67204766 400 194 C399.34 194 398.68 194 398 194 C397.66548828 193.1646875 397.66548828 193.1646875 397.32421875 192.3125 C393.27363789 185.23891926 385.14543398 179.63767548 378 176 C376.30713911 174.98808155 374.62001081 173.96653563 372.9375 172.9375 C367.95701161 169.9552166 363.37891302 167.25710196 357.6875 165.9375 C356.470625 165.628125 355.25375 165.31875 354 165 C353.67 164.34 353.34 163.68 353 163 C352.01 163 351.02 163 350 163 C350.0314209 162.19183838 350.0628418 161.38367676 350.09521484 160.55102539 C350.72542154 141.74454066 349.55255777 125.17625847 344 107 C343.34 107 342.68 107 342 107 C341.90847656 106.33097656 341.81695312 105.66195312 341.72265625 104.97265625 C340.80330546 101.19089435 339.18850725 97.88795363 337.4375 94.4375 C337.08324951 93.73584717 336.72899902 93.03419434 336.36401367 92.3112793 C331.9262573 83.69727196 327.01787335 75.7664186 320 69 C318.9171875 67.8553125 318.9171875 67.8553125 317.8125 66.6875 C316.16877727 64.77286049 316.16877727 64.77286049 314 65 C313.80277344 64.12214844 313.60554688 63.24429688 313.40234375 62.33984375 C311.65587821 58.18043418 309.09608293 56.15762839 305.5625 53.5625 C304.92852295 53.08441895 304.2945459 52.60633789 303.64135742 52.11376953 C301.77510225 50.7216593 299.89256044 49.35605799 298 48 C297.10796875 47.35675781 296.2159375 46.71351562 295.296875 46.05078125 C283.96378492 38.40629124 271.10906052 32.73349749 258.125 28.5625 C257.40183594 28.32781006 256.67867187 28.09312012 255.93359375 27.85131836 C244.5829959 24.40869426 233.10587871 23.6487934 221.31689453 23.68432617 C219.13393132 23.68748707 216.95232855 23.66391644 214.76953125 23.63867188 C201.53590918 23.57755607 189.19064985 25.87016365 176.625 30.125 Z " fill="#FEFEFE" transform="translate(0,0)"/>
<path d="M0 0 C2.18085285 0.00315012 4.36033005 -0.02036031 6.54101562 -0.0456543 C20.07501811 -0.10808798 32.91509875 2.00399467 45.75976562 6.37817383 C46.63294434 6.67344971 47.50612305 6.96872559 48.40576172 7.27294922 C62.22019265 12.15119348 74.98363895 19.19979789 86.44726562 28.31567383 C87.85685547 29.35401367 87.85685547 29.35401367 89.29492188 30.41333008 C90.21144531 31.10297852 91.12796875 31.79262695 92.07226562 32.50317383 C92.88953125 33.11547852 93.70679688 33.7277832 94.54882812 34.35864258 C96.79591639 36.67508542 96.99388666 38.18419584 97.44726562 41.31567383 C98.76129838 42.01961995 100.09929133 42.67913041 101.44726562 43.31567383 C103.88476562 46.12817383 103.88476562 46.12817383 105.00585938 47.58520508 C106.52434844 49.4771763 106.52434844 49.4771763 108.82617188 51.56958008 C111.7641437 54.64766382 113.81512959 57.78344553 115.94726562 61.44067383 C116.33454834 62.09648438 116.72183105 62.75229492 117.12084961 63.42797852 C125.44726562 77.74167504 125.44726562 77.74167504 125.44726562 83.31567383 C126.10726562 83.31567383 126.76726562 83.31567383 127.44726562 83.31567383 C133.25539194 102.32853413 134.21190296 119.6488094 133.44726562 139.31567383 C134.43726563 139.31567383 135.42726563 139.31567383 136.44726562 139.31567383 C136.44726562 139.97567383 136.44726562 140.63567383 136.44726562 141.31567383 C135.12726563 141.31567383 133.80726563 141.31567383 132.44726562 141.31567383 C132.11726563 139.66567383 131.78726562 138.01567383 131.44726562 136.31567383 C129.96226562 137.30567383 129.96226562 137.30567383 128.44726562 138.31567383 C125.25976562 138.44067383 125.25976562 138.44067383 122.44726562 138.31567383 C122.77726563 137.65567383 123.10726562 136.99567383 123.44726562 136.31567383 C116.87322891 136.21401347 110.47024643 136.33925194 103.93945312 137.10083008 C101.27458948 137.3305597 98.68320845 137.30997502 96.00976562 137.25317383 C91.12221988 137.190691 86.63105317 137.86579841 81.85742188 138.87817383 C79.44726562 139.31567383 79.44726562 139.31567383 75.44726562 139.31567383 C75.44726562 139.97567383 75.44726562 140.63567383 75.44726562 141.31567383 C72.80726563 141.64567383 70.16726563 141.97567383 67.44726562 142.31567383 C67.11726562 143.30567383 66.78726563 144.29567383 66.44726562 145.31567383 C63.80726563 145.64567383 61.16726563 145.97567383 58.44726562 146.31567383 C58.44726562 146.97567383 58.44726562 147.63567383 58.44726562 148.31567383 C57.78726563 148.31567383 57.12726563 148.31567383 56.44726562 148.31567383 C56.640625 147.77040039 56.83398438 147.22512695 57.03320312 146.66333008 C57.87521042 144.22484361 58.67024017 141.77562271 59.44726562 139.31567383 C59.65996094 138.65438477 59.87265625 137.9930957 60.09179688 137.31176758 C64.71285295 120.32356863 60.70036558 103.22425306 52.54833984 88.12817383 C50.19957672 84.2618285 47.09483763 81.86673646 43.44726562 79.31567383 C42.40172235 78.2988113 41.36005014 77.27795353 40.32226562 76.25317383 C27.05950659 64.88073907 8.91971998 64.38524125 -7.55273438 65.31567383 C-20.88705138 66.8877798 -31.73117296 73.60492471 -40.62695312 83.37426758 C-41.58021484 84.33526367 -41.58021484 84.33526367 -42.55273438 85.31567383 C-43.21273437 85.31567383 -43.87273437 85.31567383 -44.55273438 85.31567383 C-44.95492187 86.35788086 -44.95492187 86.35788086 -45.36523438 87.42114258 C-47.10208377 91.65471298 -49.1270904 95.74602668 -51.11523438 99.86645508 C-53.79149067 106.28801569 -54.94177666 112.33500559 -54.92773438 119.31567383 C-54.92829834 120.03972412 -54.9288623 120.76377441 -54.92944336 121.50976562 C-54.772181 129.4476476 -52.78855408 136.74621193 -50.55273438 144.31567383 C-50.21091541 145.64685702 -49.87258338 146.97904168 -49.55273438 148.31567383 C-50.87273437 147.98567383 -52.19273437 147.65567383 -53.55273438 147.31567383 C-53.55273438 146.65567383 -53.55273438 145.99567383 -53.55273438 145.31567383 C-54.21273437 145.31567383 -54.87273437 145.31567383 -55.55273438 145.31567383 C-55.55273438 143.33567383 -55.55273438 141.35567383 -55.55273438 139.31567383 C-56.21273437 139.31567383 -56.87273437 139.31567383 -57.55273438 139.31567383 C-57.05773437 141.79067383 -57.05773437 141.79067383 -56.55273438 144.31567383 C-57.99066829 144.00517657 -59.42806618 143.69219623 -60.86523438 143.37817383 C-61.66574219 143.20415039 -62.46625 143.03012695 -63.29101562 142.85083008 C-65.55273438 142.31567383 -65.55273438 142.31567383 -68.55273438 141.31567383 C-68.55273438 140.65567383 -68.55273438 139.99567383 -68.55273438 139.31567383 C-69.35710937 139.35692383 -70.16148437 139.39817383 -70.99023438 139.44067383 C-74.55273437 139.31567383 -74.55273437 139.31567383 -78.42773438 138.34692383 C-84.60486731 136.92719734 -90.8012677 136.85839403 -97.11523438 136.69067383 C-98.91444336 136.63266602 -98.91444336 136.63266602 -100.75 136.57348633 C-103.68409862 136.47996924 -106.61820321 136.39421748 -109.55273438 136.31567383 C-109.55273438 136.64567383 -109.55273438 136.97567383 -109.55273438 137.31567383 C-113.60548597 138.29815906 -117.39135175 138.39726957 -121.55273438 138.31567383 C-121.55273438 137.65567383 -121.55273438 136.99567383 -121.55273438 136.31567383 C-122.54273437 136.31567383 -123.53273438 136.31567383 -124.55273438 136.31567383 C-124.88273437 137.96567383 -125.21273437 139.61567383 -125.55273438 141.31567383 C-126.87273437 141.31567383 -128.19273437 141.31567383 -129.55273438 141.31567383 C-129.55273438 140.65567383 -129.55273438 139.99567383 -129.55273438 139.31567383 C-128.56273437 139.31567383 -127.57273437 139.31567383 -126.55273438 139.31567383 C-126.58415527 138.54304199 -126.61557617 137.77041016 -126.64794922 136.97436523 C-127.30913127 118.07906542 -125.83264938 101.6315492 -120.55273438 83.31567383 C-119.89273438 83.31567383 -119.23273438 83.31567383 -118.55273438 83.31567383 C-118.44058594 82.77942383 -118.3284375 82.24317383 -118.21289062 81.69067383 C-116.69481161 75.65804611 -114.21984164 70.50916258 -111.17773438 65.12817383 C-110.80269775 64.46366211 -110.42766113 63.79915039 -110.04125977 63.11450195 C-106.18098336 56.43672942 -102.07427739 50.73034826 -96.55273438 45.31567383 C-95.28918482 43.65925592 -94.03961153 41.99210237 -92.80273438 40.31567383 C-83.28958115 28.58647826 -69.86551529 20.16037545 -56.55273438 13.31567383 C-55.68003906 12.8593457 -54.80734375 12.40301758 -53.90820312 11.93286133 C-48.16350857 9.12669717 -42.18649067 7.09526325 -36.11523438 5.12817383 C-35.35251221 4.87793457 -34.58979004 4.62769531 -33.80395508 4.36987305 C-22.63885466 0.87908275 -11.63367943 -0.0349632 0 0 Z " fill="#0493FA" transform="translate(216.552734375,23.684326171875)"/>
<path d="M0 0 C1.02222656 0.4125 2.04445313 0.825 3.09765625 1.25 C10.97175946 4.7540257 16.24570726 9.68278732 22 16 C22.67804688 16.61359375 23.35609375 17.2271875 24.0546875 17.859375 C26.58608179 20.64492535 28.08456688 23.73137272 29.625 27.125 C29.93058838 27.79805176 30.23617676 28.47110352 30.55102539 29.16455078 C36.64195265 42.98875373 37.23732679 59.72948571 32 74 C31.34 74.99 30.68 75.98 30 77 C29.34 77 28.68 77 28 77 C28 77.7425 28 78.485 28 79.25 C27 82 27 82 25.4050293 82.93481445 C24.73898682 83.2205835 24.07294434 83.50635254 23.38671875 83.80078125 C18.91075658 85.9155112 15.48711214 88.65615738 11.8125 91.9375 C11.22275391 92.44990234 10.63300781 92.96230469 10.02539062 93.49023438 C4.33629001 98.47057051 -0.68286366 103.58076236 -5.0625 109.75 C-5.49933105 110.36182129 -5.93616211 110.97364258 -6.38623047 111.60400391 C-9.59524954 116.19711627 -12.00673088 120.74501777 -14 126 C-14.66 126 -15.32 126 -16 126 C-16.99 129.96 -17.98 133.92 -19 138 C-23.455 138.99 -23.455 138.99 -28 140 C-28.67031719 138.0429132 -29.33614683 136.08428887 -30 134.125 C-30.37125 133.03445312 -30.7425 131.94390625 -31.125 130.8203125 C-32 128 -32 128 -32 126 C-32.66 126 -33.32 126 -34 126 C-34.40089844 125.12859375 -34.80179688 124.2571875 -35.21484375 123.359375 C-43.40570874 106.19756265 -54.93987178 92.31870308 -71.9140625 83.28125 C-77.81824588 79.65471039 -79.2455118 75.36391282 -81 69 C-81.20753906 68.34386719 -81.41507813 67.68773437 -81.62890625 67.01171875 C-86.21851441 50.48271033 -82.13346901 34.45974946 -73.921875 19.87890625 C-71.1577294 15.73830603 -67.93286701 12.97920587 -64 10 C-62.93635984 8.98035469 -61.8738441 7.95953506 -60.8125 6.9375 C-45.07198664 -6.49776655 -18.41823953 -7.99706466 0 0 Z " fill="#0379FA" transform="translate(244,92)"/>
<path d="M0 0 C0.721875 0.28875 1.44375 0.5775 2.1875 0.875 C11.55223907 4.97207334 18.9447117 12.64898228 23 22 C23 23.32 23 24.64 23 26 C23.66 26 24.32 26 25 26 C27.44025097 30.74493244 27.2983189 35.17266489 27.25 40.375 C27.26160156 41.6125 27.26160156 41.6125 27.2734375 42.875 C27.25728295 47.96368373 26.63722878 52.17927081 25 57 C24.34 57 23.68 57 23 57 C22.896875 57.721875 22.79375 58.44375 22.6875 59.1875 C22 62 22 62 20.375 64.5 C18.81102231 66.88982289 18.81102231 66.88982289 18.9375 69.5 C20.48765193 73.14741631 22.837836 74.64519702 26 77 C24.78319443 80.6504167 23.07473837 81.3777387 19.98828125 83.4609375 C16.49278861 86.16668229 13.78456708 89.58911692 11 93 C6.36108044 90.77924064 2.88409142 88.32613712 0 84 C-4.455 84.495 -4.455 84.495 -9 85 C-9 85.66 -9 86.32 -9 87 C-15.77840295 88.20504941 -23.38887206 89.20370931 -30 87 C-30 86.34 -30 85.68 -30 85 C-30.94875 85.103125 -31.8975 85.20625 -32.875 85.3125 C-40.99629909 85.29609334 -49.20350512 79.30137761 -55 74 C-65.13716643 63.20814158 -68.45771291 51.52691772 -68.20703125 37.07421875 C-67.80742356 26.47113136 -63.76864664 17.22769014 -56.52734375 9.41015625 C-55.125 8.1875 -55.125 8.1875 -52 6 C-51.35546875 5.51015625 -50.7109375 5.0203125 -50.046875 4.515625 C-35.44574529 -6.09382896 -16.35733896 -7.36080253 0 0 Z " fill="#FAFCFD" transform="translate(262,231)"/>
<path d="M0 0 C1.25159912 0.00523682 2.50319824 0.01047363 3.79272461 0.01586914 C4.78942421 0.01799156 4.78942421 0.01799156 5.80625916 0.02015686 C7.93590735 0.02577021 10.06545175 0.03832485 12.19506836 0.05102539 C13.63582205 0.05603868 15.07657739 0.06060188 16.51733398 0.06469727 C20.05577938 0.07574394 23.59416375 0.09301747 27.13256836 0.11352539 C27.93078622 2.31311791 28.72588187 4.51375958 29.51928711 6.71508789 C29.96232178 7.94050293 30.40535645 9.16591797 30.86181641 10.4284668 C32.52949537 15.2645756 33.88761405 20.1539513 35.13256836 25.11352539 C35.79256836 25.11352539 36.45256836 25.11352539 37.13256836 25.11352539 C37.43437012 26.08999023 37.73617187 27.06645508 38.04711914 28.07250977 C39.19418778 31.7792467 40.34759099 35.48398949 41.50268555 39.18823242 C41.99686361 40.77593127 42.48943951 42.36412991 42.98022461 43.95288086 C45.80458483 53.09153821 48.74208336 62.12923197 52.29788208 71.01403809 C53.59988206 74.33591283 54.13256836 76.47276815 54.13256836 80.11352539 C54.79256836 80.11352539 55.45256836 80.11352539 56.13256836 80.11352539 C57.32544247 83.99036626 58.13256836 87.02974463 58.13256836 91.11352539 C49.55256836 91.11352539 40.97256836 91.11352539 32.13256836 91.11352539 C30.15256836 84.67852539 30.15256836 84.67852539 28.13256836 78.11352539 C17.24256836 77.78352539 6.35256836 77.45352539 -4.86743164 77.11352539 C-5.90275547 81.77248261 -6.9314464 86.43359917 -7.86743164 91.11352539 C-16.11743164 91.11352539 -24.36743164 91.11352539 -32.86743164 91.11352539 C-32.16323545 85.47995588 -31.34758642 80.81445329 -29.58227539 75.55102539 C-29.25145714 74.53588867 -29.25145714 74.53588867 -28.91395569 73.50024414 C-28.21772365 71.36904426 -27.51153627 69.24130578 -26.80493164 67.11352539 C-26.32705167 65.65671258 -25.84983214 64.19968295 -25.37329102 62.74243164 C-24.21228469 59.19692765 -23.042335 55.654452 -21.86743164 52.11352539 C-21.20743164 52.11352539 -20.54743164 52.11352539 -19.86743164 52.11352539 C-19.61477539 50.86442383 -19.36211914 49.61532227 -19.10180664 48.32836914 C-17.83529851 42.63908131 -16.00076194 37.18631259 -14.11743164 31.67602539 C-13.40244075 29.5614918 -12.68759859 27.44690792 -11.97290039 25.33227539 C-11.44188721 23.76799805 -11.44188721 23.76799805 -10.90014648 22.17211914 C-9.93476768 19.31295467 -8.9848177 16.44934465 -8.04321289 13.58227539 C-7.76896484 12.74881592 -7.4947168 11.91535645 -7.2121582 11.05664062 C-6.70050376 9.49948004 -6.19066334 7.94172193 -5.68286133 6.38330078 C-3.62170372 0.14338801 -3.62170372 0.14338801 0 0 Z " fill="#FAFCFD" transform="translate(136.867431640625,226.886474609375)"/>
<path d="M0 0 C7.92 0 15.84 0 24 0 C25.844719 1.844719 25.1200219 4.44516412 25.12442017 6.8993988 C25.12082489 7.74672073 25.11722961 8.59404266 25.11352539 9.46704102 C25.11367142 10.35476196 25.11381744 11.24248291 25.1139679 12.15710449 C25.11326843 15.10606284 25.10547448 18.05495887 25.09765625 21.00390625 C25.09579219 23.04271917 25.09436823 25.08153254 25.09336853 27.12034607 C25.08954241 32.49784574 25.07971132 37.87531858 25.06866455 43.25280762 C25.05845245 48.73559201 25.05387134 54.21838072 25.04882812 59.70117188 C25.03808914 70.46746162 25.02049158 81.23372439 25 92 C16.75 92 8.5 92 0 92 C0 61.64 0 31.28 0 0 Z " fill="#F8FAFD" transform="translate(302,226)"/>
<path d="M0 0 C0.66 0 1.32 0 2 0 C0.99500612 11.39262351 -0.0338005 22.72572841 -2 34 C-1.34 34 -0.68 34 0 34 C3.1888102 38.05212223 3.40558471 41.37572998 3.375 46.4375 C3.38660156 48.35369141 3.38660156 48.35369141 3.3984375 50.30859375 C2.6968752 56.8083621 -0.14991823 60.75617845 -5 65 C-5.99 65.33 -6.98 65.66 -8 66 C-8 66.66 -8 67.32 -8 68 C-11.80528391 69.76274181 -14.8160526 70.27134667 -19 70.25 C-20.5159375 70.25773437 -20.5159375 70.25773437 -22.0625 70.265625 C-25.0703976 69.99363426 -27.27306793 69.26321118 -30 68 C-30 67.34 -30 66.68 -30 66 C-31.0828125 65.7215625 -31.0828125 65.7215625 -32.1875 65.4375 C-37.03680713 62.95896525 -39.92586913 57.95947738 -42 53 C-42.94434511 45.92839244 -42.32118417 39.78599236 -38 34 C-34.14872785 29.50980712 -30.8809802 26.84953619 -24.9375 26.0625 C-19.70021639 25.34429008 -17.58591772 23.13027097 -14.375 19.0703125 C-12.96581535 17.04339548 -12.96581535 17.04339548 -11.953125 14.8828125 C-10.52905691 12.06969438 -8.22478618 10.22478618 -6 8 C-4.39863218 5.88713877 -2.85312668 3.74549218 -1.33203125 1.57421875 C-0.89246094 1.05472656 -0.45289063 0.53523438 0 0 Z " fill="#F9FBFC" transform="translate(239,97)"/>
<path d="M0 0 C7.08712131 3.25540298 12.47628758 9.36364455 18 14.75 C18.73972046 15.45757446 18.73972046 15.45757446 19.49438477 16.17944336 C20.72239022 17.3957225 21.86834136 18.69359995 23 20 C23 20.99 23 21.98 23 23 C22.21625 23.763125 21.4325 24.52625 20.625 25.3125 C17.82891158 28.17516195 16.97842689 30.17524033 16 34 C15.34 34 14.68 34 14 34 C13.731875 35.093125 13.46375 36.18625 13.1875 37.3125 C12.124154 41.60386062 10.91750471 45.84858484 9.68359375 50.09375 C8.84134595 53.67450636 8.45625899 57.34992806 8 61 C-2.89 61 -13.78 61 -25 61 C-25 52.25815106 -24.73547046 46.28870928 -22.25 38.3125 C-21.99734375 37.44044922 -21.7446875 36.56839844 -21.484375 35.66992188 C-17.04960163 20.80234415 -17.04960163 20.80234415 -12 16 C-10.46942982 13.84832888 -8.97188457 11.69082488 -7.5 9.5 C-2.81443299 2.5257732 -2.81443299 2.5257732 0 0 Z " fill="#F9D90C" transform="translate(149,81)"/>
<path d="M0 0 C3.78308544 1.46622542 5.59527237 4.20968415 7.890625 7.3984375 C8.33664062 7.98882812 8.78265625 8.57921875 9.2421875 9.1875 C11.16361367 11.77269158 12.61613301 13.94996154 13.640625 17.0234375 C14.094375 17.4359375 14.548125 17.8484375 15.015625 18.2734375 C19.15364132 22.72976277 19.8146553 28.24164959 20.640625 34.0234375 C21.37445414 35.71443509 22.10966895 37.40505587 22.875 39.08203125 C25.60701234 46.00963396 25.640625 52.58748003 25.640625 60.0234375 C15.080625 60.0234375 4.520625 60.0234375 -6.359375 60.0234375 C-6.875 57.3421875 -7.390625 54.6609375 -7.921875 51.8984375 C-9.76572991 43.0863208 -12.86513479 35.81275869 -17.359375 28.0234375 C-18.14634766 26.62544922 -18.14634766 26.62544922 -18.94921875 25.19921875 C-20.1755551 22.90395413 -20.1755551 22.90395413 -22.359375 22.0234375 C-21.78166805 18.41201817 -20.44699218 16.74560649 -17.8671875 14.203125 C-17.16207031 13.50316406 -16.45695312 12.80320312 -15.73046875 12.08203125 C-14.98925781 11.36144531 -14.24804688 10.64085938 -13.484375 9.8984375 C-12.38416016 8.80595703 -12.38416016 8.80595703 -11.26171875 7.69140625 C-3.4917758 0.03468651 -3.4917758 0.03468651 0 0 Z " fill="#D30257" transform="translate(290.359375,81.9765625)"/>
<path d="M0 0 C15.37507358 0 26.6826758 1.3369587 40 9 C40 9.66 40 10.32 40 11 C42.31 11.33 44.62 11.66 47 12 C47 12.66 47 13.32 47 14 C47.70511719 14.24492188 48.41023438 14.48984375 49.13671875 14.7421875 C52.39763037 16.17467528 54.96134115 17.99521869 57.8125 20.125 C58.78832031 20.84945312 59.76414062 21.57390625 60.76953125 22.3203125 C61.50558594 22.87460938 62.24164063 23.42890625 63 24 C62.44291667 27.61711851 61.27138983 28.94146207 58.4375 31.1875 C54.46141877 34.47952425 51.21989313 38.09103598 47.95703125 42.08203125 C45.69400087 44.29989136 44.08263676 45.2626409 41 46 C38.82421875 45.2421875 38.82421875 45.2421875 36.6875 43.875 C35.91148437 43.400625 35.13546875 42.92625 34.3359375 42.4375 C33.56507813 41.963125 32.79421875 41.48875 32 41 C29.96020036 39.93188674 27.90022928 38.91791294 25.83203125 37.90625 C24.20223906 37.1000415 22.59881171 36.24102301 21 35.375 C14.1058023 32.21515939 7.59314001 31.759314 0 31 C0 20.77 0 10.54 0 0 Z " fill="#F00609" transform="translate(222,52)"/>
<path d="M0 0 C3.96 0 7.92 0 12 0 C12 10.23 12 20.46 12 31 C8.37 31.33 4.74 31.66 1 32 C-1.92071173 32.69242542 -1.92071173 32.69242542 -4.2734375 33.70703125 C-5.11777344 34.04669922 -5.96210938 34.38636719 -6.83203125 34.73632812 C-7.67121094 35.09146484 -8.51039063 35.44660156 -9.375 35.8125 C-10.66857422 36.32780273 -10.66857422 36.32780273 -11.98828125 36.85351562 C-16.59340148 38.74452416 -20.19128086 40.72803085 -24 44 C-24.66 44 -25.32 44 -26 44 C-26 44.66 -26 45.32 -26 46 C-31.99316773 45.1556018 -34.74711213 42.0682884 -39 38 C-39.47937012 37.5570459 -39.95874023 37.1140918 -40.45263672 36.65771484 C-42.00346794 35.22364978 -43.53465896 33.77100469 -45.0625 32.3125 C-45.56410645 31.84924316 -46.06571289 31.38598633 -46.58251953 30.90869141 C-47.97265625 29.55078125 -47.97265625 29.55078125 -50 27 C-49.99609375 24.73046875 -49.99609375 24.73046875 -49 23 C-48.01 22.67 -47.02 22.34 -46 22 C-46 21.34 -46 20.68 -46 20 C-43.515625 18.0546875 -43.515625 18.0546875 -40.25 15.875 C-39.18265625 15.15054688 -38.1153125 14.42609375 -37.015625 13.6796875 C-34 12 -34 12 -30 12 C-30 11.01 -30 10.02 -30 9 C-21.5456684 4.87871696 -13.62745472 2.97750153 -4.39453125 1.578125 C-1.17345322 1.36623693 -1.17345322 1.36623693 0 0 Z " fill="#FCA306" transform="translate(205,52)"/>
<path d="M0 0 C4.47873518 3.14340858 8.64968775 7.56109424 11.109375 12.48046875 C11.26019446 15.11980927 11.3406828 17.71519543 11.359375 20.35546875 C11.38 21.07605469 11.400625 21.79664063 11.421875 22.5390625 C11.44654761 25.88836948 11.34629054 28.08845901 9.59375 30.98828125 C9.10390625 31.48070312 8.6140625 31.973125 8.109375 32.48046875 C7.37332031 31.67480469 6.63726562 30.86914062 5.87890625 30.0390625 C4.89404605 28.99792458 3.90832352 27.95760191 2.921875 26.91796875 C2.43912109 26.38494141 1.95636719 25.85191406 1.45898438 25.30273438 C-1.43909129 22.26365293 -1.43909129 22.26365293 -5.390625 21.32421875 C-8.69523575 22.85260122 -11.1207934 25.03648668 -13.703125 27.54296875 C-14.20521484 28.01541016 -14.70730469 28.48785156 -15.22460938 28.97460938 C-16.45485289 30.13455327 -17.67389565 31.3063569 -18.890625 32.48046875 C-18.3422968 36.35358065 -16.62980783 38.03428806 -13.828125 40.66796875 C-12.50179894 41.9243655 -11.18540569 43.19158684 -9.890625 44.48046875 C-9.890625 44.81046875 -9.890625 45.14046875 -9.890625 45.48046875 C-17.48463084 45.97040461 -24.40490204 45.09902331 -30.52734375 40.16015625 C-36.52266756 33.57070125 -37.47119023 26.13677817 -37.234375 17.6015625 C-36.54771733 11.36702297 -34.14146609 7.3818648 -29.578125 3.16796875 C-20.87388809 -3.57138768 -9.988664 -5.04901447 0 0 Z " fill="#0A88F7" transform="translate(253.890625,250.51953125)"/>
<path d="M0 0 C1.5625 1.4375 1.5625 1.4375 3 3 C3.99 3.495 3.99 3.495 5 4 C4.67 4.66 4.34 5.32 4 6 C3.23042969 6.14566406 2.46085937 6.29132813 1.66796875 6.44140625 C-1.33320412 7.06976309 -2.45839861 7.88247161 -4.6875 9.9375 C-5.70070313 10.87142578 -5.70070313 10.87142578 -6.734375 11.82421875 C-7.48203125 12.54222656 -8.2296875 13.26023437 -9 14 C-9.89203125 14.85207031 -10.7840625 15.70414063 -11.703125 16.58203125 C-16.78964235 21.16746169 -16.78964235 21.16746169 -20 27 C-19.401875 27.226875 -18.80375 27.45375 -18.1875 27.6875 C-11.17638276 31.89417034 -7.28781167 44.99509557 -5.3125 52.671875 C-4.40025168 56.95437407 -4 60.57133445 -4 65 C6.56 65 17.12 65 28 65 C28 62.03 28 59.06 28 56 C28.66 56.33 29.32 56.66 30 57 C30.02689216 58.47906892 30.04634621 59.95827483 30.0625 61.4375 C30.07410156 62.26121094 30.08570313 63.08492187 30.09765625 63.93359375 C30 66 30 66 29 67 C26.55416014 67.15978803 24.13246453 67.25937145 21.68359375 67.31640625 C21.03588013 67.33505737 20.3881665 67.3537085 19.7208252 67.3729248 C17.29319348 67.44140265 14.86532952 67.50143617 12.4375 67.5625 C7.013125 67.706875 1.58875 67.85125 -4 68 C12.335 68.495 12.335 68.495 29 69 C28 82 28 82 27 83 C24.45721316 83.37934349 21.92809363 83.70873798 19.375 84 C17.96607434 84.16606122 16.55721939 84.33272349 15.1484375 84.5 C14.11541504 84.62181641 14.11541504 84.62181641 13.06152344 84.74609375 C10.03399822 85.11897701 7.01792035 85.55642116 4 86 C4 86.66 4 87.32 4 88 C1.36 88.33 -1.28 88.66 -4 89 C-4.495 90.485 -4.495 90.485 -5 92 C-8.465 92.495 -8.465 92.495 -12 93 C-11.71125 91.89785156 -11.4225 90.79570312 -11.125 89.66015625 C-6.05219139 69.35763887 -6.97637834 53.13345292 -17.51171875 34.6796875 C-19 32 -19 32 -20 29 C-21.32023372 28.30775356 -22.65649221 27.64591721 -24 27 C-25.60161753 25.62518495 -27.18278189 24.2264033 -28.75 22.8125 C-37.62209395 15.45862533 -48.35153059 10.68314842 -59.86328125 9.484375 C-62.40471611 8.90825448 -63.35808996 7.97666839 -65 6 C-51.30824821 5.33749588 -39.22711657 11.13195768 -28 18.625 C-24.99666827 20.40956152 -24.99666827 20.40956152 -21.6875 18.9375 C-18.8188389 17.10802085 -18.8188389 17.10802085 -17 14 C-16.34 14 -15.68 14 -15 14 C-14.74089844 13.41347656 -14.48179687 12.82695313 -14.21484375 12.22265625 C-12.91475016 9.84402842 -11.51125162 8.31081607 -9.5625 6.4375 C-8.96566406 5.85871094 -8.36882812 5.27992187 -7.75390625 4.68359375 C-6.88572266 3.85021484 -6.88572266 3.85021484 -6 3 C-5.49339844 2.43410156 -4.98679687 1.86820312 -4.46484375 1.28515625 C-3 0 -3 0 0 0 Z " fill="#0B87EE" transform="translate(288,77)"/>
<path d="M0 0 C5.94 0 11.88 0 18 0 C18 10.89 18 21.78 18 33 C22.2075 33.5259375 22.2075 33.5259375 26.5 34.0625 C43.97687876 36.64390017 59.49177088 44.48083166 70.40625 58.8515625 C76.81315119 69.23989514 81.4013007 79.65182253 81.375 92 C81.37483887 92.72405029 81.37467773 93.44810059 81.37451172 94.1940918 C81.18998314 103.16509432 79.41905161 113.09746177 75 121 C74.34 121 73.68 121 73 121 C73.19335938 120.45472656 73.38671875 119.90945312 73.5859375 119.34765625 C74.42794479 116.90916978 75.22297455 114.45994888 76 112 C76.21269531 111.33871094 76.42539062 110.67742187 76.64453125 109.99609375 C81.26558732 93.00789481 77.25309996 75.90857923 69.10107422 60.8125 C66.75231109 56.94615467 63.647572 54.55106263 60 52 C58.95445673 50.98313747 57.91278452 49.9622797 56.875 48.9375 C43.61224097 37.56506524 25.47245435 37.06956742 9 38 C-4.33431701 39.57210597 -15.17843858 46.28925088 -24.07421875 56.05859375 C-24.70972656 56.69925781 -25.34523437 57.33992188 -26 58 C-26.66 58 -27.32 58 -28 58 C-28.268125 58.69480469 -28.53625 59.38960937 -28.8125 60.10546875 C-30.54934939 64.33903915 -32.57435602 68.43035285 -34.5625 72.55078125 C-37.23875629 78.97234186 -38.38904229 85.01933176 -38.375 92 C-38.37556396 92.72405029 -38.37612793 93.44810059 -38.37670898 94.1940918 C-38.21944663 102.13197377 -36.23581971 109.43053811 -34 117 C-33.65818103 118.33118319 -33.319849 119.66336785 -33 121 C-34.32 120.67 -35.64 120.34 -37 120 C-37 119.34 -37 118.68 -37 118 C-37.66 118 -38.32 118 -39 118 C-39 116.02 -39 114.04 -39 112 C-39.66 112 -40.32 112 -41 112 C-41 110.68 -41 109.36 -41 108 C-41.66 108 -42.32 108 -43 108 C-43.33 104.04 -43.66 100.08 -44 96 C-54.23 96 -64.46 96 -75 96 C-75 95.67 -75 95.34 -75 95 C-62.625 94.505 -62.625 94.505 -50 94 C-50 93.67 -50 93.34 -50 93 C-62.87 92.505 -62.87 92.505 -76 92 C-76 91.67 -76 91.34 -76 91 C-65.11 91 -54.22 91 -43 91 C-43 88.36 -43 85.72 -43 83 C-42.55688477 80.56298828 -42.55688477 80.56298828 -41.94140625 78.5703125 C-41.72033203 77.838125 -41.49925781 77.1059375 -41.27148438 76.3515625 C-41.03751953 75.61679688 -40.80355469 74.88203125 -40.5625 74.125 C-40.33240234 73.36703125 -40.10230469 72.6090625 -39.86523438 71.828125 C-38.19774266 66.39548531 -38.19774266 66.39548531 -37 64 C-36.34 64 -35.68 64 -35 64 C-34.9175 63.113125 -34.835 62.22625 -34.75 61.3125 C-33.90015652 57.55902463 -32.65972191 55.74031954 -30 53 C-29.34 53 -28.68 53 -28 53 C-30.51542134 48.179538 -33.98586224 44.71605435 -37.8125 40.9375 C-38.41642578 40.32583984 -39.02035156 39.71417969 -39.64257812 39.08398438 C-43.20114001 35.5407446 -46.7193795 32.62868119 -51 30 C-50.67 29.34 -50.34 28.68 -50 28 C-49.34 28 -48.68 28 -48 28 C-47.67 26.68 -47.34 25.36 -47 24 C-46.01 24.33 -45.02 24.66 -44 25 C-43.64510889 26.32775796 -43.3147676 27.6621621 -43 29 C-40.87321495 31.74976368 -38.34403894 34.11937654 -35.875 36.5625 C-35.22273438 37.23474609 -34.57046875 37.90699219 -33.8984375 38.59960938 C-29.84561155 42.64841467 -26.4279073 45.13195398 -21 47 C-21 46.34 -21 45.68 -21 45 C-15.35208049 40.35721871 -8.7588913 37.22401557 -2 34.5625 C-1.05930664 34.17433105 -1.05930664 34.17433105 -0.09960938 33.77832031 C6.09766248 31.47096016 9.69148068 32 17 32 C17 21.77 17 11.54 17 1 C7.02675753 1.82859187 7.02675753 1.82859187 -2 4 C-4.4375 3.625 -4.4375 3.625 -6 3 C-3.03 2.505 -3.03 2.505 0 2 C0 1.34 0 0.68 0 0 Z " fill="#2275E0" transform="translate(200,51)"/>
<path d="M0 0 C10.56 0 21.12 0 32 0 C32 4.29 32 8.58 32 13 C30.92621094 13.13277344 29.85242188 13.26554688 28.74609375 13.40234375 C27.30989167 13.58069564 25.87369399 13.75908295 24.4375 13.9375 C23.38079102 14.06801758 23.38079102 14.06801758 22.30273438 14.20117188 C17.86088073 14.75384491 13.42925336 15.35394596 9 16 C9 16.66 9 17.32 9 18 C5.04 18.99 1.08 19.98 -3 21 C-2.17184457 13.96067882 -1.07995611 7.01971469 0 0 Z " fill="#5D0224" transform="translate(283,147)"/>
<path d="M0 0 C10.23 0 20.46 0 31 0 C31.84728203 4.23641013 32.08384078 7.72412002 32 12 C32.66 12 33.32 12 34 12 C34.495 16.455 34.495 16.455 35 21 C26.375 19.125 26.375 19.125 23 18 C23 17.34 23 16.68 23 16 C22.195625 16.04125 21.39125 16.0825 20.5625 16.125 C16.94215868 15.99797048 13.82842063 15.35058541 10.32421875 14.51171875 C6.90199559 13.75825449 3.48191237 13.37984499 0 13 C0 8.71 0 4.42 0 0 Z " fill="#00A80C" transform="translate(125,147)"/>
<path d="M0 0 C12.72011501 10.26146191 21.7814047 22.41647378 24.84765625 38.78515625 C25.07963982 41.50421955 25.22843615 44.07149546 25.22265625 46.78515625 C25.22249512 47.50920654 25.22233398 48.23325684 25.22216797 48.97924805 C25.03763939 57.95025057 23.26670786 67.88261802 18.84765625 75.78515625 C18.18765625 75.78515625 17.52765625 75.78515625 16.84765625 75.78515625 C17.04101562 75.23988281 17.234375 74.69460937 17.43359375 74.1328125 C18.27560104 71.69432603 19.0706308 69.24510513 19.84765625 66.78515625 C20.16669922 65.79322266 20.16669922 65.79322266 20.4921875 64.78125 C25.11324357 47.79305106 21.10075621 30.69373548 12.94873047 15.59765625 C10.59996734 11.73131092 7.49522825 9.33621888 3.84765625 6.78515625 C2.80211298 5.76829372 1.76044077 4.74743595 0.72265625 3.72265625 C-12.54010278 -7.64977851 -30.6798894 -8.14527633 -47.15234375 -7.21484375 C-60.48666076 -5.64273778 -71.33078233 1.07440713 -80.2265625 10.84375 C-80.86207031 11.48441406 -81.49757812 12.12507813 -82.15234375 12.78515625 C-82.81234375 12.78515625 -83.47234375 12.78515625 -84.15234375 12.78515625 C-84.42046875 13.47996094 -84.68859375 14.17476562 -84.96484375 14.890625 C-86.70169314 19.1241954 -88.72669977 23.2155091 -90.71484375 27.3359375 C-93.39110004 33.75749811 -94.54138604 39.80448801 -94.52734375 46.78515625 C-94.52790771 47.50920654 -94.52847168 48.23325684 -94.52905273 48.97924805 C-94.37179038 56.91713002 -92.38816346 64.21569436 -90.15234375 71.78515625 C-89.81052478 73.11633944 -89.47219275 74.4485241 -89.15234375 75.78515625 C-89.81234375 75.78515625 -90.47234375 75.78515625 -91.15234375 75.78515625 C-97.17620698 60.14065709 -100.36107269 44.02653328 -94.15234375 27.78515625 C-90.79103013 20.28326252 -87.25439461 13.43555925 -81.15234375 7.78515625 C-80.21455078 6.81642578 -80.21455078 6.81642578 -79.2578125 5.828125 C-58.08063905 -14.65895726 -24.10043131 -16.93301679 0 0 Z " fill="#BDD6F4" transform="translate(256.15234375,96.21484375)"/>
<path d="M0 0 C0.33 0.99 0.66 1.98 1 3 C1.66 3 2.32 3 3 3 C3.33 6.63 3.66 10.26 4 14 C14.56 14 25.12 14 36 14 C36 11.03 36 8.06 36 5 C36.66 5.33 37.32 5.66 38 6 C38.02689216 7.47906892 38.04634621 8.95827483 38.0625 10.4375 C38.07410156 11.26121094 38.08570313 12.08492187 38.09765625 12.93359375 C38 15 38 15 37 16 C34.55416014 16.15978803 32.13246453 16.25937145 29.68359375 16.31640625 C29.03588013 16.33505737 28.3881665 16.3537085 27.7208252 16.3729248 C25.29319348 16.44140265 22.86532952 16.50143617 20.4375 16.5625 C15.013125 16.706875 9.58875 16.85125 4 17 C20.335 17.495 20.335 17.495 37 18 C36.67 22.29 36.34 26.58 36 31 C35.67 31 35.34 31 35 31 C35 27.04 35 23.08 35 19 C24.44 19 13.88 19 3 19 C3 21.97 3 24.94 3 28 C2.34375 31.50390625 2.34375 31.50390625 1.5 34.5625 C1.2215625 35.59503906 0.943125 36.62757813 0.65625 37.69140625 C0.4396875 38.45324219 0.223125 39.21507812 0 40 C1.98 39.505 1.98 39.505 4 39 C3.67 39.66 3.34 40.32 3 41 C0.67843403 41.40729228 -1.6568787 41.74438677 -4 42 C-3.71125 40.9790625 -3.4225 39.958125 -3.125 38.90625 C0.28858789 25.88167803 0.44373842 13.40431355 0 0 Z " fill="#2C65D3" transform="translate(280,128)"/>
<path d="M0 0 C0.66 0 1.32 0 2 0 C2.99 4.62 3.98 9.24 5 14 C5.66 14 6.32 14 7 14 C7.99 17.96 8.98 21.92 10 26 C4.39 26 -1.22 26 -7 26 C-6.5875 24.494375 -6.175 22.98875 -5.75 21.4375 C-3.80252627 14.299869 -1.90091376 7.15013753 0 0 Z " fill="#1484F0" transform="translate(148,256)"/>
<path d="M0 0 C16.67093106 -0.39072495 16.67093106 -0.39072495 23 2 C24.05703125 2.38027344 25.1140625 2.76054688 26.203125 3.15234375 C43.48921198 9.90589072 54.26021658 21.59864433 61.88671875 38.09375 C64.27725354 44.33430397 65.38928559 50.29291336 65.375 57 C65.37483887 57.72405029 65.37467773 58.44810059 65.37451172 59.1940918 C65.18998314 68.16509432 63.41905161 78.09746177 59 86 C58.34 86 57.68 86 57 86 C57.19335938 85.45472656 57.38671875 84.90945312 57.5859375 84.34765625 C58.42794479 81.90916978 59.22297455 79.45994888 60 77 C60.21269531 76.33871094 60.42539062 75.67742187 60.64453125 74.99609375 C65.26558732 58.00789481 61.25309996 40.90857923 53.10107422 25.8125 C50.75231109 21.94615467 47.647572 19.55106263 44 17 C42.95445673 15.98313747 41.91278452 14.9622797 40.875 13.9375 C30.00821809 4.70073537 13.82986442 1.90534101 0 1 C0 0.67 0 0.34 0 0 Z " fill="#BFDAF6" transform="translate(216,86)"/>
<path d="M0 0 C5.94 0 11.88 0 18 0 C18 10.89 18 21.78 18 33 C14.25878931 34.87060534 11.80254297 35.45585918 7.75 36.125 C1.78967415 37.33832971 -3.26332803 39.26063194 -8.6875 42 C-9.37038086 42.34434082 -10.05326172 42.68868164 -10.75683594 43.04345703 C-13.97030736 44.7293582 -16.47010854 46.42930384 -19 49 C-21.6875 48.6875 -21.6875 48.6875 -24 48 C-22.515 47.505 -22.515 47.505 -21 47 C-21 46.34 -21 45.68 -21 45 C-15.35208049 40.35721871 -8.7588913 37.22401557 -2 34.5625 C-1.37287109 34.3037207 -0.74574219 34.04494141 -0.09960938 33.77832031 C6.09766248 31.47096016 9.69148068 32 17 32 C17 21.77 17 11.54 17 1 C7.02675753 1.82859187 7.02675753 1.82859187 -2 4 C-4.4375 3.625 -4.4375 3.625 -6 3 C-4.02 2.67 -2.04 2.34 0 2 C0 1.34 0 0.68 0 0 Z " fill="#3D89D0" transform="translate(200,51)"/>
<path d="M0 0 C4.91511194 1.34048507 4.91511194 1.34048507 6.4375 3.9375 C6.97270313 7.53100675 6.88564771 9.25631548 4.875 12.3125 C1.51691451 14.55122366 -0.60995604 14.51241549 -4.5625 13.9375 C-7.18791413 11.73553976 -7.5070448 10.31776421 -8 6.9375 C-7.5625 3.9375 -7.5625 3.9375 -6 1.5 C-3.5625 -0.0625 -3.5625 -0.0625 0 0 Z " fill="#0E77F0" transform="translate(220.5625,137.0625)"/>
<path d="M0 0 C2.18085285 0.00315012 4.36033005 -0.02036031 6.54101562 -0.0456543 C16.48176749 -0.08803214 25.75188491 1.15360066 35.44726562 3.31567383 C35.44726562 3.64567383 35.44726562 3.97567383 35.44726562 4.31567383 C34.71838135 4.24493652 33.98949707 4.17419922 33.23852539 4.10131836 C24.39209298 3.32410535 15.62027469 3.16131766 6.74487305 3.18530273 C4.38453781 3.19067435 2.0243921 3.18531649 -0.3359375 3.17895508 C-10.47016606 3.17391152 -20.5993935 3.18672447 -30.55273438 5.31567383 C-30.55273438 5.97567383 -30.55273438 6.63567383 -30.55273438 7.31567383 C-33.52273437 6.82067383 -33.52273437 6.82067383 -36.55273438 6.31567383 C-36.55273438 5.98567383 -36.55273438 5.65567383 -36.55273438 5.31567383 C-24.4416342 1.29650342 -12.70610764 -0.03818621 0 0 Z " fill="#49B8F4" transform="translate(216.552734375,23.684326171875)"/>
<path d="M0 0 C10.89 0 21.78 0 33 0 C33.495 1.98 33.495 1.98 34 4 C33.34 4 32.68 4 32 4 C32 3.01 32 2.02 32 1 C21.77 1 11.54 1 1 1 C1 4.63 1 8.26 1 12 C0.34 12 -0.32 12 -1 12 C-1 13.32 -1 14.64 -1 16 C-10.57 15.67 -20.14 15.34 -30 15 C-30 9.99852013 -29.97103025 8.18843928 -28 4 C-27.34 4 -26.68 4 -26 4 C-26.66 7.3 -27.32 10.6 -28 14 C-19.75 14 -11.5 14 -3 14 C-2.67 11.36 -2.34 8.72 -2 6 C-1.34 4.02 -0.68 2.04 0 0 Z " fill="#3A7FDF" transform="translate(132,304)"/>
<path d="M0 0 C13.90861378 -0.67299744 25.54149446 5.41863646 37.1875 12.5 C38.115625 12.995 39.04375 13.49 40 14 C40.99 13.67 41.98 13.34 43 13 C42.67 14.32 42.34 15.64 42 17 C39.05103765 17.44234435 36.85924679 17.5728312 34.3125 15.875 C33.714375 15.38 33.11625 14.885 32.5 14.375 C24.71234142 8.09126784 15.08730213 4.63050624 5.20703125 3.51953125 C2.63212479 2.91340283 1.66367871 2.01050424 0 0 Z " fill="#2C8BE7" transform="translate(223,83)"/>
<path d="M0 0 C0.99 0.33 1.98 0.66 3 1 C3.35915956 2.3266097 3.68943188 3.66118099 4 5 C5.29139274 6.70078688 5.29139274 6.70078688 6.94140625 8.234375 C7.81635742 9.09482422 7.81635742 9.09482422 8.70898438 9.97265625 C9.62647461 10.85244141 9.62647461 10.85244141 10.5625 11.75 C11.17802734 12.35199219 11.79355469 12.95398438 12.42773438 13.57421875 C13.94514813 15.05634381 15.47170596 16.5290967 17 18 C16.34 18.33 15.68 18.66 15 19 C15.33 20.32 15.66 21.64 16 23 C12.31487792 19.91653051 8.77925215 16.82864118 5.4375 13.375 C2.51495202 10.39294313 -0.43975044 8.17088388 -4 6 C-3.67 5.34 -3.34 4.68 -3 4 C-2.34 4 -1.68 4 -1 4 C-0.67 2.68 -0.34 1.36 0 0 Z " fill="#1D8EE2" transform="translate(153,75)"/>
<path d="M0 0 C4.19360449 0.67097672 7.40334352 2.8558394 11 5 C9.71480435 7.86697492 8.42870746 9.97607712 6 12 C5.34 12 4.68 12 4 12 C3.58621094 12.82757813 3.58621094 12.82757813 3.1640625 13.671875 C1.109375 17.78125 -0.9453125 21.890625 -3 26 C-3.99 25.67 -4.98 25.34 -6 25 C-5.67 23.68 -5.34 22.36 -5 21 C-4.34 21 -3.68 21 -3 21 C-2.9175 20.113125 -2.835 19.22625 -2.75 18.3125 C-1.90015652 14.55902463 -0.65972191 12.74031954 2 10 C2.66 10 3.32 10 4 10 C3.71125 9.44570312 3.4225 8.89140625 3.125 8.3203125 C2.568125 7.23363281 2.568125 7.23363281 2 6.125 C1.62875 5.40570313 1.2575 4.68640625 0.875 3.9453125 C0 2 0 2 0 0 Z " fill="#1386E7" transform="translate(168,94)"/>
<path d="M0 0 C1 4 1 4 0 17 C10.56 17 21.12 17 32 17 C31.505 18.485 31.505 18.485 31 20 C26.92492428 20.04946866 22.84996503 20.08575189 18.7746582 20.10986328 C17.38855952 20.1199157 16.00248201 20.1335597 14.61645508 20.15087891 C12.6233025 20.17515952 10.62999467 20.18542031 8.63671875 20.1953125 C6.83787231 20.21102295 6.83787231 20.21102295 5.00268555 20.22705078 C2 20 2 20 -1 18 C-1.24905022 15.24858808 -1.32673572 12.74330188 -1.25 10 C-1.24484375 9.26265625 -1.2396875 8.5253125 -1.234375 7.765625 C-1.15472274 2.30944549 -1.15472274 2.30944549 0 0 Z " fill="#1071EF" transform="translate(124,126)"/>
<path d="M0 0 C0.33 0 0.66 0 1 0 C1.33 5.61 1.66 11.22 2 17 C2.33 11.39 2.66 5.78 3 0 C3.33 0 3.66 0 4 0 C4.33 10.23 4.66 20.46 5 31 C7.31 31.33 9.62 31.66 12 32 C12 32.33 12 32.66 12 33 C6.39 33 0.78 33 -5 33 C-5 32.67 -5 32.34 -5 32 C-3.35 32 -1.7 32 0 32 C0 21.44 0 10.88 0 0 Z " fill="#138DE9" transform="translate(218,52)"/>
<path d="M0 0 C11.22 0 22.44 0 34 0 C34 5.61 34 11.22 34 17 C33.67 17 33.34 17 33 17 C32.505 11.06 32.505 11.06 32 5 C21.77 5 11.54 5 1 5 C1 4.67 1 4.34 1 4 C13.375 3.505 13.375 3.505 26 3 C26 2.67 26 2.34 26 2 C13.13 1.505 13.13 1.505 0 1 C0 0.67 0 0.34 0 0 Z " fill="#2786BB" transform="translate(124,142)"/>
<path d="M0 0 C1.5625 1.4375 1.5625 1.4375 3 3 C3.66 3.33 4.32 3.66 5 4 C4.67 4.66 4.34 5.32 4 6 C3.23429687 6.14050781 2.46859375 6.28101562 1.6796875 6.42578125 C-1.41311748 7.08852517 -2.59303282 8.0428296 -4.875 10.1875 C-5.55304688 10.81140625 -6.23109375 11.4353125 -6.9296875 12.078125 C-7.61289062 12.71234375 -8.29609375 13.3465625 -9 14 C-10.32770627 15.15234884 -11.66061245 16.29874945 -13 17.4375 C-13.99 18.283125 -14.98 19.12875 -16 20 C-16.66 19.34 -17.32 18.68 -18 18 C-17.38511719 17.41992188 -16.77023437 16.83984375 -16.13671875 16.2421875 C-11.81879152 12.06887984 -8.3961913 8.59111303 -6 3 C-3.83302329 0.29127911 -3.59481737 0 0 0 Z " fill="#1587EB" transform="translate(288,77)"/>
<path d="M0 0 C0.66 0 1.32 0 2 0 C7.60033772 16.87568434 9.4719269 35.59142743 5 53 C4.67 53 4.34 53 4 53 C4.01047363 52.11965088 4.02094727 51.23930176 4.03173828 50.33227539 C4.39219893 27.08757173 4.39219893 27.08757173 2 4 C1.34 4 0.68 4 0 4 C0 2.68 0 1.36 0 0 Z " fill="#3191EE" transform="translate(417,226)"/>
<path d="M0 0 C3 1 3 1 3.984375 2.78515625 C5.85904015 8.36132862 6.15536322 12.22318388 5 18 C5.99 17.67 6.98 17.34 8 17 C8 17.66 8 18.32 8 19 C21.365 19.495 21.365 19.495 35 20 C35 17.36 35 14.72 35 12 C35.33 12 35.66 12 36 12 C36 14.97 36 17.94 36 21 C25.44 21 14.88 21 4 21 C3.34 18.091875 2.68 15.18375 2 12.1875 C1.79117187 11.27508545 1.58234375 10.3626709 1.3671875 9.42260742 C1.12355469 8.33749878 1.12355469 8.33749878 0.875 7.23046875 C0.70742188 6.49207764 0.53984375 5.75368652 0.3671875 4.99291992 C0 3 0 3 0 0 Z " fill="#AE1469" transform="translate(280,121)"/>
<path d="M0 0 C3.8194883 5.72923244 4.38939609 12.24103802 4.375 19 C4.37483887 19.72405029 4.37467773 20.44810059 4.37451172 21.1940918 C4.18998314 30.16509432 2.41905161 40.09746177 -2 48 C-2.66 48 -3.32 48 -4 48 C-3.80664062 47.45472656 -3.61328125 46.90945312 -3.4140625 46.34765625 C-2.57205521 43.90916978 -1.77702545 41.45994888 -1 39 C-0.78730469 38.33871094 -0.57460938 37.67742187 -0.35546875 36.99609375 C2.48416957 26.55684783 1.7808658 14.45403332 -0.66015625 4.00390625 C-1 2 -1 2 0 0 Z " fill="#B6D2F4" transform="translate(277,124)"/>
<path d="M0 0 C5.94 0 11.88 0 18 0 C18 10.89 18 21.78 18 33 C13.38 33.33 8.76 33.66 4 34 C4.66 33.34 5.32 32.68 6 32 C9.63 32 13.26 32 17 32 C17 21.77 17 11.54 17 1 C7.02675753 1.82859187 7.02675753 1.82859187 -2 4 C-4.4375 3.625 -4.4375 3.625 -6 3 C-4.02 2.67 -2.04 2.34 0 2 C0 1.34 0 0.68 0 0 Z " fill="#9D996C" transform="translate(200,51)"/>
<path d="M0 0 C2.5625 2.375 2.5625 2.375 5 5 C5.598125 5.598125 6.19625 6.19625 6.8125 6.8125 C7.204375 7.204375 7.59625 7.59625 8 8 C10.95409701 6.62845496 13.44008376 5.01136276 16 3 C15.65120368 6.25543229 14.97866739 7.01873107 12.4375 9.25 C11.633125 9.8275 10.82875 10.405 10 11 C7.33333333 9.66666667 4.66666667 8.33333333 2 7 C2 6.34 2 5.68 2 5 C1.34 5 0.68 5 0 5 C-0.66 3.68 -1.32 2.36 -2 1 C-2.6496875 2.0209375 -2.6496875 2.0209375 -3.3125 3.0625 C-7.60220227 6.15507606 -11.9760485 4.79690265 -17 4 C-17 3.67 -17 3.34 -17 3 C-14.69 3 -12.38 3 -10 3 C-10 2.34 -10 1.68 -10 1 C-3.29064869 -1.59224937 -3.29064869 -1.59224937 0 0 Z " fill="#2173E1" transform="translate(263,315)"/>
<path d="M0 0 C6.63183632 4.42122422 11.02454678 15.35703961 13 23 C12.59765625 25.28515625 12.59765625 25.28515625 12 27 C11.34 27 10.68 27 10 27 C9.76925781 26.32195312 9.53851563 25.64390625 9.30078125 24.9453125 C7.57341746 20.01583954 5.73750273 15.31897324 3.3125 10.6875 C1.45575786 7.11640391 0.3212313 4.06892984 0 0 Z " fill="#3271D8" transform="translate(269,104)"/>
<path d="M0 0 C2.62386487 3.06117568 3 3.73173127 3 8 C3.66 8 4.32 8 5 8 C6.80230168 11.82989106 7.19622241 14.78121808 7 19 C7.66 19 8.32 19 9 19 C9 20.98 9 22.96 9 25 C-0.24 25 -9.48 25 -19 25 C-19 24.67 -19 24.34 -19 24 C-10.42 24 -1.84 24 7 24 C6.34 21.69 5.68 19.38 5 17 C5 15.68 5 14.36 5 13 C4.34 13 3.68 13 3 13 C2.49487756 11.39743892 1.99608373 9.79288208 1.5 8.1875 C1.2215625 7.29417969 0.943125 6.40085937 0.65625 5.48046875 C0 3 0 3 0 0 Z " fill="#4589E3" transform="translate(188,294)"/>
<path d="M0 0 C0.33 0 0.66 0 1 0 C1 4.62 1 9.24 1 14 C3.64 14.66 6.28 15.32 9 16 C9 16.66 9 17.32 9 18 C5.04 18.99 1.08 19.98 -3 21 C-2.17321655 13.97234063 -1.09751783 6.99001647 0 0 Z " fill="#3E183E" transform="translate(283,147)"/>
<path d="M0 0 C3.61128778 1.6250795 5.1446317 3.96207685 7.5 7.125 C7.17 7.785 6.84 8.445 6.5 9.125 C5.5925 8.279375 4.685 7.43375 3.75 6.5625 C1.35672187 4.50382953 1.35672187 4.50382953 -1.6875 4.0625 C-3.64009453 5.03234296 -3.64009453 5.03234296 -4.8125 7.0625 C-7.22851245 10.01540411 -9.86908691 10.30290647 -13.5 11.125 C-4.59401084 0.22970054 -4.59401084 0.22970054 0 0 Z " fill="#C91669" transform="translate(290.5,81.875)"/>
<path d="M0 0 C0.66 0.99 1.32 1.98 2 3 C1.34 3.45375 0.68 3.9075 0 4.375 C-3.0151012 8.33232033 -2.33045517 12.19004145 -2 17 C-4.52845528 15.73577236 -4.76422764 14.47154472 -6 12 C-6.66 11.67 -7.32 11.34 -8 11 C-7.43040847 7.37386801 -6.07625466 5.74482259 -3.4375 3.25 C-2.79683594 2.63640625 -2.15617187 2.0228125 -1.49609375 1.390625 C-1.00238281 0.93171875 -0.50867188 0.4728125 0 0 Z " fill="#A6136A" transform="translate(276,93)"/>
<path d="M0 0 C0 0.99 0 1.98 0 3 C-1.15757812 3.06058594 -2.31515625 3.12117188 -3.5078125 3.18359375 C-5.04688457 3.26805502 -6.58594655 3.35270018 -8.125 3.4375 C-8.88554687 3.47681641 -9.64609375 3.51613281 -10.4296875 3.55664062 C-14.68509203 3.79509002 -18.80370826 4.20230237 -23 5 C-23 4.01 -23 3.02 -23 2 C-15.2441657 0.29005228 -7.93396732 -0.24923458 0 0 Z " fill="#8DBBEA" transform="translate(226,85)"/>
<path d="M0 0 C0.66 0.33 1.32 0.66 2 1 C0.04761147 3.00612399 -1.91137822 5.00492433 -3.875 7 C-4.43058594 7.57234375 -4.98617187 8.1446875 -5.55859375 8.734375 C-7.00134404 10.19450782 -8.4974374 11.60149298 -10 13 C-10.66 13 -11.32 13 -12 13 C-12.268125 13.598125 -12.53625 14.19625 -12.8125 14.8125 C-13.98493467 16.97224808 -15.19369282 18.35790256 -17 20 C-17.66 19.67 -18.32 19.34 -19 19 C-17.71937515 17.2925002 -16.38232443 15.62626404 -15 14 C-14.34 14 -13.68 14 -13 14 C-12.67902344 13.17242187 -12.67902344 13.17242187 -12.3515625 12.328125 C-10.546489 9.21880764 -8.05199936 7.08727863 -5.375 4.75 C-4.859375 4.29109375 -4.34375 3.8321875 -3.8125 3.359375 C-2.5465398 2.23407704 -1.27392058 1.11627823 0 0 Z " fill="#34ABF2" transform="translate(55,180)"/>
<path d="M0 0 C2 2 2 2 2.01171875 3.98828125 C1.90472656 4.75527344 1.79773438 5.52226562 1.6875 6.3125 C1.57921875 7.11171875 1.4709375 7.9109375 1.359375 8.734375 C0.9725851 11.17283307 0.54388973 13.59134546 0 16 C1.32 15.67 2.64 15.34 4 15 C3.67 15.66 3.34 16.32 3 17 C0.69 17.33 -1.62 17.66 -4 18 C-2.68 12.06 -1.36 6.12 0 0 Z " fill="#2476E9" transform="translate(280,152)"/>
<path d="M0 0 C0.66 1.32 1.32 2.64 2 4 C1.5875 4.495 1.175 4.99 0.75 5.5 C-1.56954268 8.81363239 -3.25835911 12.35758351 -5 16 C-5.99 15.67 -6.98 15.34 -8 15 C-7.67 13.68 -7.34 12.36 -7 11 C-6.34 11 -5.68 11 -5 11 C-4.9175 10.113125 -4.835 9.22625 -4.75 8.3125 C-3.9065914 4.58744536 -2.54447236 2.79071162 0 0 Z " fill="#3B85D1" transform="translate(170,104)"/>
<path d="M0 0 C0.845625 0.309375 1.69125 0.61875 2.5625 0.9375 C6.0497854 2.01538821 9.38177535 2.56581304 13 3 C13 3.66 13 4.32 13 5 C19.93 5.495 19.93 5.495 27 6 C27 6.33 27 6.66 27 7 C19.34393782 7.19355213 12.33741969 7.3479743 5 5 C5 4.34 5 3.68 5 3 C3.35 2.67 1.7 2.34 0 2 C0 1.34 0 0.68 0 0 Z " fill="#2F7DE3" transform="translate(219,313)"/>
<path d="M0 0 C4.37156123 3.90624099 5.80388273 9.05824093 6.1875 14.8125 C6.1875 17.21621857 6.13526055 19.60037767 6 22 C3.67353611 19.67353611 3.56226395 18.67277516 3 15.5 C2.83757812 14.61570312 2.67515625 13.73140625 2.5078125 12.8203125 C2.34023438 11.88960937 2.17265625 10.95890625 2 10 C1.62891113 8.12422201 1.25410643 6.24917404 0.875 4.375 C0.58333333 2.91666667 0.29166667 1.45833333 0 0 Z " fill="#F30959" transform="translate(307,108)"/>
<path d="M0 0 C6.96327638 -0.33693273 12.43345544 0.6969113 19 3 C15.42789566 5.29819725 13.04991756 5.03102649 8.9375 4.3125 C7.37322266 4.05919922 7.37322266 4.05919922 5.77734375 3.80078125 C2.9353434 2.9813578 1.81358736 2.27796613 0 0 Z " fill="#407ACD" transform="translate(223,83)"/>
<path d="M0 0 C0 0.33 0 0.66 0 1 C2.31 1.33 4.62 1.66 7 2 C7 2.33 7 2.66 7 3 C-1.91 3.99 -1.91 3.99 -11 5 C-10 2 -10 2 -7.75 0.8125 C-5.00208853 0.00061706 -2.84552111 -0.16260121 0 0 Z " fill="#602247" transform="translate(308,157)"/>
<path d="M0 0 C6.34507042 0.59859155 6.34507042 0.59859155 8.9375 2.1875 C10.51045744 4.87078033 10.32378803 6.95639252 10 10 C9.34 10.66 8.68 11.32 8 12 C7.67 9.36 7.34 6.72 7 4 C4.03 3.67 1.06 3.34 -2 3 C-1.34 2.01 -0.68 1.02 0 0 Z " fill="#3382E5" transform="translate(217,137)"/>
<path d="M0 0 C0.66 0 1.32 0 2 0 C4.41492814 7.00177279 5.59248958 13.60860415 6 21 C5.34 21 4.68 21 4 21 C3.34 15.39 2.68 9.78 2 4 C1.34 4 0.68 4 0 4 C0 2.68 0 1.36 0 0 Z " fill="#409DE9" transform="translate(417,226)"/>
<path d="M0 0 C5.94 0 11.88 0 18 0 C18 0.33 18 0.66 18 1 C17.14277344 1.04898438 16.28554687 1.09796875 15.40234375 1.1484375 C8.06852046 1.53252081 8.06852046 1.53252081 0.9375 3.125 C-1.97123438 3.99143152 -3.22662546 4.10934982 -6 3 C-4.02 2.67 -2.04 2.34 0 2 C0 1.34 0 0.68 0 0 Z " fill="#68A6B5" transform="translate(200,51)"/>
<path d="M0 0 C0.33 0.66 0.66 1.32 1 2 C-0.72807318 2.33895656 -2.45751974 2.67091525 -4.1875 3 C-5.63189453 3.2784375 -5.63189453 3.2784375 -7.10546875 3.5625 C-9.7934206 3.96877612 -12.28771019 4.07933572 -15 4 C-15 3.34 -15 2.68 -15 2 C-13.43883181 1.66048381 -11.87598662 1.32867456 -10.3125 1 C-9.44238281 0.814375 -8.57226562 0.62875 -7.67578125 0.4375 C-5.06287036 0.01027953 -2.64186962 -0.07616201 0 0 Z " fill="#2A85DC" transform="translate(213,84)"/>
<path d="M0 0 C-6.56342244 3.65875889 -12.54928441 5.93787671 -20 7 C-19 5 -19 5 -16.5625 4.125 C-15.386875 3.75375 -14.21125 3.3825 -13 3 C-10.41502139 1.92024962 -7.83870008 0.82388959 -5.26953125 -0.29296875 C-3 -1 -3 -1 0 0 Z " fill="#1D6CEC" transform="translate(372,344)"/>
<path d="M0 0 C0.66 0 1.32 0 2 0 C2 3.63 2 7.26 2 11 C-0.64 11 -3.28 11 -6 11 C-5.67 10.34 -5.34 9.68 -5 9 C-3.35 9 -1.7 9 0 9 C0 6.03 0 3.06 0 0 Z " fill="#87041E" transform="translate(313,148)"/>
<path d="M0 0 C0.66 0 1.32 0 2 0 C1.67 4.29 1.34 8.58 1 13 C0.67 13 0.34 13 0 13 C-0.33 10.69 -0.66 8.38 -1 6 C-2.32 7.32 -3.64 8.64 -5 10 C-5.66 9.67 -6.32 9.34 -7 9 C-5.88266271 7.49428343 -4.75589965 5.99555708 -3.625 4.5 C-2.99851563 3.6646875 -2.37203125 2.829375 -1.7265625 1.96875 C-1.15679687 1.3190625 -0.58703125 0.669375 0 0 Z " fill="#CEE9FA" transform="translate(239,97)"/>
<path d="M0 0 C2.70931419 0.15481795 4.46584039 0.48172081 6.4453125 2.40234375 C7.67679642 3.89771708 8.8429837 5.4462924 10 7 C9.67 7.66 9.34 8.32 9 9 C8.0925 8.21625 7.185 7.4325 6.25 6.625 C3.94809764 4.69947504 1.78422793 3.17794259 -1 2 C-0.67 1.34 -0.34 0.68 0 0 Z " fill="#D12374" transform="translate(288,82)"/>
<path d="M0 0 C0.33 0 0.66 0 1 0 C1.25011345 2.22691371 1.47428352 4.45675122 1.6875 6.6875 C1.81511719 7.92886719 1.94273437 9.17023438 2.07421875 10.44921875 C1.99375562 14.29874446 1.26578663 15.95371103 -1 19 C-1.66 18.67 -2.32 18.34 -3 18 C-2.68289062 17.31550781 -2.36578125 16.63101563 -2.0390625 15.92578125 C-0.85883043 12.60249621 -0.58802755 9.70245465 -0.375 6.1875 C-0.30023438 5.02605469 -0.22546875 3.86460937 -0.1484375 2.66796875 C-0.09945312 1.78753906 -0.05046875 0.90710938 0 0 Z " fill="#4D8FE6" transform="translate(242,138)"/>
<path d="M0 0 C3 0 3 0 4.5625 1.4375 C5.036875 1.953125 5.51125 2.46875 6 3 C6.66 3.33 7.32 3.66 8 4 C7.67 4.66 7.34 5.32 7 6 C5.35 6 3.7 6 2 6 C2 5.34 2 4.68 2 4 C0.02 4.33 -1.96 4.66 -4 5 C-2.1875 2.5 -2.1875 2.5 0 0 Z " fill="#3D7DD5" transform="translate(285,77)"/>
<path d="M0 0 C0.66 0.33 1.32 0.66 2 1 C1.67 1.66 1.34 2.32 1 3 C0.34 3 -0.32 3 -1 3 C-1 3.66 -1 4.32 -1 5 C-3.86600189 6.99027909 -6.51616122 8.51947051 -10 9 C-10.66 8.67 -11.32 8.34 -12 8 C-6.5 4 -6.5 4 -2 4 C-2 3.01 -2 2.02 -2 1 C-1.34 0.67 -0.68 0.34 0 0 Z " fill="#C3B25B" transform="translate(177,60)"/>
<path d="M0 0 C1.4606285 2.64738916 2 3.89448334 2 7 C1.34 7 0.68 7 0 7 C0 8.32 0 9.64 0 11 C-0.99 10.67 -1.98 10.34 -3 10 C-2.69201674 8.51988629 -2.378482 7.04092675 -2.0625 5.5625 C-1.88847656 4.73878906 -1.71445313 3.91507812 -1.53515625 3.06640625 C-1 1 -1 1 0 0 Z " fill="#227AE8" transform="translate(131,309)"/>
<path d="M0 0 C0.66 0 1.32 0 2 0 C0.55575365 3.23861303 -1.25772247 5.61969163 -3.625 8.25 C-4.25664062 8.95640625 -4.88828125 9.6628125 -5.5390625 10.390625 C-6.02117187 10.92171875 -6.50328125 11.4528125 -7 12 C-7.33 11.34 -7.66 10.68 -8 10 C-6.85500893 8.52018126 -5.708983 7.04116318 -4.5625 5.5625 C-3.60537109 4.32693359 -3.60537109 4.32693359 -2.62890625 3.06640625 C-1 1 -1 1 0 0 Z " fill="#D2EBFA" transform="translate(208,238)"/>
<path d="M0 0 C0.33 0.66 0.66 1.32 1 2 C-0.07192184 3.3218362 -1.15802695 4.63217927 -2.25 5.9375 C-2.85328125 6.66839844 -3.4565625 7.39929688 -4.078125 8.15234375 C-6.10741134 10.10326334 -7.254407 10.61731779 -10 11 C-9.67 10.34 -9.34 9.68 -9 9 C-8.34 9 -7.68 9 -7 9 C-6.6596875 8.1646875 -6.6596875 8.1646875 -6.3125 7.3125 C-4.64103234 4.36753316 -2.44723648 2.31843456 0 0 Z " fill="#5469B5" transform="translate(280,82)"/>
<path d="M0 0 C2.62386487 3.06117568 3 3.73173127 3 8 C3.66 8 4.32 8 5 8 C5.66 9.98 6.32 11.96 7 14 C5.109375 13.8046875 5.109375 13.8046875 3 13 C1.953125 10.8203125 1.953125 10.8203125 1.25 8.125 C1.00765625 7.24070312 0.7653125 6.35640625 0.515625 5.4453125 C0 3 0 3 0 0 Z " fill="#1B78E6" transform="translate(188,294)"/>
<path d="M0 0 C1.94218842 4.85547105 -0.43704872 9.31114616 -2 14 C-2.99 14 -3.98 14 -5 14 C-4.34 11.69 -3.68 9.38 -3 7 C-2.34 7 -1.68 7 -1 7 C-0.67 4.69 -0.34 2.38 0 0 Z " fill="#3D8BDE" transform="translate(288,281)"/>
<path d="M0 0 C1.32 0.66 2.64 1.32 4 2 C-1.14285714 6.42857143 -1.14285714 6.42857143 -5 7 C-3.47793991 4.37098712 -2.15634036 2.15634036 0 0 Z " fill="#D8D74B" transform="translate(149,81)"/>
<path d="M0 0 C0 0.99 0 1.98 0 3 C-4.29 3.66 -8.58 4.32 -13 5 C-12 3 -12 3 -10.0390625 2.1484375 C-8.84410156 1.76558594 -8.84410156 1.76558594 -7.625 1.375 C-6.83351562 1.11460938 -6.04203125 0.85421875 -5.2265625 0.5859375 C-3 0 -3 0 0 0 Z " fill="#C9B358" transform="translate(193,55)"/>
<path d="M0 0 C0.66 0 1.32 0 2 0 C1.55005243 1.79379098 1.08975857 3.58498928 0.625 5.375 C0.36976562 6.37273437 0.11453125 7.37046875 -0.1484375 8.3984375 C-1 11 -1 11 -3 13 C-2.67 9.37 -2.34 5.74 -2 2 C-1.34 2 -0.68 2 0 2 C0 1.34 0 0.68 0 0 Z " fill="#3698ED" transform="translate(127,242)"/>
<path d="M0 0 C1.0326802 2.78823655 1.04509293 3.8677274 0.0625 6.75 C-0.288125 7.4925 -0.63875 8.235 -1 9 C-1.66 9 -2.32 9 -3 9 C-3.33 9.99 -3.66 10.98 -4 12 C-3.54177532 8.53058454 -3.10868317 5.32604951 -2 2 C-1.34 2 -0.68 2 0 2 C0 1.34 0 0.68 0 0 Z " fill="#4CA7F1" transform="translate(23,223)"/>
<path d="M0 0 C0.66 0 1.32 0 2 0 C1.17812739 4.38332057 0.09845718 8.67940177 -1 13 C-2.53690745 10.58959839 -3.09752136 9.49917715 -2.5390625 6.640625 C-2.23742187 5.85171875 -1.93578125 5.0628125 -1.625 4.25 C-1.32851562 3.45078125 -1.03203125 2.6515625 -0.7265625 1.828125 C-0.48679688 1.22484375 -0.24703125 0.6215625 0 0 Z " fill="#267CDE" transform="translate(162,119)"/>
<path d="M0 0 C1.875 0.1875 1.875 0.1875 4 1 C5.87679987 4.37823976 6.21849583 7.17632299 6 11 C3.13546142 7.58983503 1.65296434 4.09305456 0 0 Z " fill="#B20D61" transform="translate(274,110)"/>
<path d="M0 0 C0.66 0 1.32 0 2 0 C2.042721 1.66611905 2.04063832 3.33382885 2 5 C1.67 5.33 1.34 5.66 1 6 C0.63239269 8.32817964 0.29758419 10.6618385 0 13 C-0.66 13 -1.32 13 -2 13 C-1.85769192 11.58297487 -1.71099254 10.1663904 -1.5625 8.75 C-1.48128906 7.96109375 -1.40007812 7.1721875 -1.31640625 6.359375 C-1.02365007 4.17635361 -0.57935581 2.1226818 0 0 Z " fill="#3C92F0" transform="translate(93,119)"/>
<path d="M0 0 C7.625 0.875 7.625 0.875 11 2 C11 2.66 11 3.32 11 4 C6.94393835 3.53199289 3.53411321 3.12046792 0 1 C0 0.67 0 0.34 0 0 Z " fill="#2689E6" transform="translate(238,87)"/>
<path d="M0 0 C0 0.66 0 1.32 0 2 C-1.390625 3.25390625 -1.390625 3.25390625 -3.25 4.5625 C-3.85328125 4.99691406 -4.4565625 5.43132812 -5.078125 5.87890625 C-7.05581272 7.03255742 -8.76401078 7.55972779 -11 8 C-11 7.34 -11 6.68 -11 6 C-9.04109119 4.60699818 -7.0360882 3.27754554 -5 2 C-2 0 -2 0 0 0 Z " fill="#1E71E8" transform="translate(388,332)"/>
<path d="M0 0 C0.66 0 1.32 0 2 0 C1.91563067 2.86855713 1.41307819 4.55682315 -0.5546875 6.66796875 C-5.51440024 11 -5.51440024 11 -8 11 C-6.70338689 7.11016066 -4.85122318 6.38748819 -1.49609375 4.28125 C-1.00238281 3.8584375 -0.50867188 3.435625 0 3 C0 2.01 0 1.02 0 0 Z " fill="#327CDC" transform="translate(287,307)"/>
<path d="M0 0 C0.66 0 1.32 0 2 0 C2.33 2.31 2.66 4.62 3 7 C1.35 7.33 -0.3 7.66 -2 8 C-1.34 5.36 -0.68 2.72 0 0 Z " fill="#4496E5" transform="translate(148,256)"/>
<path d="M0 0 C0.66 0 1.32 0 2 0 C2 1.65 2 3.3 2 5 C3.32 4.67 4.64 4.34 6 4 C5.67 4.66 5.34 5.32 5 6 C2.67843403 6.40729228 0.3431213 6.74438677 -2 7 C-1.34 4.69 -0.68 2.38 0 0 Z " fill="#1C71D9" transform="translate(278,163)"/>
<path d="M0 0 C0.99 0.33 1.98 0.66 3 1 C0.69 3.31 -1.62 5.62 -4 8 C-4.99 7.34 -5.98 6.68 -7 6 C-5.90716423 4.96704564 -4.80029421 3.94892165 -3.6875 2.9375 C-3.07261719 2.36902344 -2.45773438 1.80054687 -1.82421875 1.21484375 C-0.92123047 0.61349609 -0.92123047 0.61349609 0 0 Z " fill="#B2D3F2" transform="translate(179,100)"/>
<path d="M0 0 C2 2 2 2 2 6 C2.66 6 3.32 6 4 6 C4 7.65 4 9.3 4 11 C3.34 11 2.68 11 2 11 C0.57741188 7.17679443 -0.24042276 4.08718695 0 0 Z " fill="#2788EC" transform="translate(19,279)"/>
<path d="M0 0 C0.66 0.33 1.32 0.66 2 1 C0.7625 2.0828125 0.7625 2.0828125 -0.5 3.1875 C-3.24407806 5.72917366 -3.24407806 5.72917366 -3.3125 8.8125 C-3.1578125 9.8953125 -3.1578125 9.8953125 -3 11 C-3.99 10.34 -4.98 9.68 -6 9 C-5.52797514 4.75177626 -3.03344482 2.80010291 0 0 Z " fill="#DBEDFA" transform="translate(240,277)"/>
<path d="M0 0 C0.94875 0.350625 1.8975 0.70125 2.875 1.0625 C5.87060172 2.35026777 5.87060172 2.35026777 8 1 C7.67 2.32 7.34 3.64 7 5 C5.02 5 3.04 5 1 5 C0.67 3.35 0.34 1.7 0 0 Z " fill="#5176C6" transform="translate(258,95)"/>
<path d="M0 0 C0.66 0.33 1.32 0.66 2 1 C1.6875 3.375 1.6875 3.375 1 6 C0.01 6.66 -0.98 7.32 -2 8 C-2 7.01 -2 6.02 -2 5 C-2.66 4.34 -3.32 3.68 -4 3 C-2.68 2.01 -1.36 1.02 0 0 Z " fill="#1C7FE4" transform="translate(270,93)"/>
<path d="M0 0 C0.66 0.99 1.32 1.98 2 3 C0.35 4.65 -1.3 6.3 -3 8 C-3.66 7.67 -4.32 7.34 -5 7 C-1.125 1.125 -1.125 1.125 0 0 Z " fill="#BB0D62" transform="translate(276,93)"/>
<path d="M0 0 C0.33 0 0.66 0 1 0 C1.33 2.97 1.66 5.94 2 9 C-2.455 8.01 -2.455 8.01 -7 7 C-3 6 -3 6 0 7 C0 4.69 0 2.38 0 0 Z " fill="#01974D" transform="translate(158,159)"/>
<path d="M0 0 C2.04219706 1.69179328 2.91793306 2.63727666 3.51171875 5.26171875 C3.56972656 6.06222656 3.62773437 6.86273438 3.6875 7.6875 C3.75324219 8.49574219 3.81898438 9.30398437 3.88671875 10.13671875 C3.92410156 10.75160156 3.96148437 11.36648437 4 12 C1.15119698 7.72679547 -0.28990619 5.21831143 0 0 Z " fill="#6A5CBF" transform="translate(310,111)"/>
<path d="M0 0 C1.32 0.33 2.64 0.66 4 1 C3.38125 1.4125 2.7625 1.825 2.125 2.25 C-0.06768281 4.05573879 -0.92788417 5.4090534 -2 8 C-2.33 7.01 -2.66 6.02 -3 5 C-1.5625 2.3125 -1.5625 2.3125 0 0 Z " fill="#2E8FEB" transform="translate(228,107)"/>
<path d="M0 0 C0.66 1.32 1.32 2.64 2 4 C0.68 5.32 -0.64 6.64 -2 8 C-2.66 7.67 -3.32 7.34 -4 7 C-2.79618552 4.50638429 -1.54571278 2.31856917 0 0 Z " fill="#4C8CC2" transform="translate(170,104)"/>
<path d="M0 0 C0.66 0 1.32 0 2 0 C2.99 2.31 3.98 4.62 5 7 C4.01 7 3.02 7 2 7 C2 6.34 2 5.68 2 5 C1.01 4.67 0.02 4.34 -1 4 C-0.67 2.68 -0.34 1.36 0 0 Z " fill="#2682E9" transform="translate(266,101)"/>
<path d="M0 0 C-1.15173355 2.46800047 -2.04783565 4.04783565 -4 6 C-6.125 5.625 -6.125 5.625 -8 5 C-2.25 0 -2.25 0 0 0 Z " fill="#24A0F1" transform="translate(141,50)"/>
<path d="M0 0 C6.625 -0.125 6.625 -0.125 10 1 C10 1.66 10 2.32 10 3 C3.375 2.25 3.375 2.25 0 0 Z " fill="#4282EA" transform="translate(83,350)"/>
<path d="M0 0 C1.65 1.65 3.3 3.3 5 5 C2.03 5 -0.94 5 -4 5 C-4 4.67 -4 4.34 -4 4 C-2.35 4 -0.7 4 1 4 C0.67 2.68 0.34 1.36 0 0 Z " fill="#3D85E1" transform="translate(239,291)"/>
<path d="M0 0 C0 3 0 3 -2 5.1875 C-2.66 5.785625 -3.32 6.38375 -4 7 C-4.66 6.67 -5.32 6.34 -6 6 C-2.25 1.125 -2.25 1.125 0 0 Z " fill="#25A4EF" transform="translate(42,193)"/>
<path d="M0 0 C0.99 0.33 1.98 0.66 3 1 C3.6875 3.0625 3.6875 3.0625 4 5 C2.35 5.66 0.7 6.32 -1 7 C-0.67 4.69 -0.34 2.38 0 0 Z " fill="#2F85DA" transform="translate(171,100)"/>
</svg>
